PathFileType	4	(X/Y/Z)	/Users/guillermo/Documents/TESIS/Procesamiento_videos/data/sports2d_raw/Cam1_rep/sujeto01_caml/sujeto01_rep09_camL_Sports2D/sujeto01_rep09_camL_Sports2D_px_person00.trc
DataRate	CameraRate	NumFrames	NumMarkers	Units	OrigDataRate	OrigDataStartFrame	OrigNumFrames
120.0	120.0	14	22	m	120.0	51	68
Frame#	Time	Hip			RHip			RKnee			RAnkle			RBigToe			RSmallToe			RHeel			LHip			LKnee			LAnkle			LBigToe			LSmallToe			LHeel			Neck			Head			Nose			RShoulder			RElbow			RWrist			LShoulder			LElbow			LWrist			
		X1	Y1	Z1	X2	Y2	Z2	X3	Y3	Z3	X4	Y4	Z4	X5	Y5	Z5	X6	Y6	Z6	X7	Y7	Z7	X8	Y8	Z8	X9	Y9	Z9	X10	Y10	Z10	X11	Y11	Z11	X12	Y12	Z12	X13	Y13	Z13	X14	Y14	Z14	X15	Y15	Z15	X16	Y16	Z16	X17	Y17	Z17	X18	Y18	Z18	X19	Y19	Z19	X20	Y20	Z20	X21	Y21	Z21	X22	Y22	Z22
51	0.425	906.6145935058594	550.0453491210938	0.0	890.2898254394531	551.5294189453125	0.0	894.0	615.3444213867188	0.0	898.4522094726562	676.1912841796875	0.0							899.936279296875	683.6116333007812	0.0	924.4234313964844	550.7873840332031	0.0	928.8756408691406	613.8603515625	0.0	928.8756408691406	670.9970397949219	0.0				932.5858154296875	680.6434936523438	0.0	922.9393615722656	677.6753540039062	0.0	902.9044189453125	451.3547058105469	0.0	897.7101745605469	410.54278564453125	0.0	896.2261047363281	433.5458679199219	0.0	877.6752319335938	464.7113342285156	0.0	867.2867431640625	505.52325439453125	0.0	865.8026733398438	543.3670349121094	0.0	928.1336059570312	461.00115966796875	0.0	939.2641296386719	503.2971496582031	0.0	938.5220947265625	542.625	0.0
52	0.43333333333333335	906.6145935058594	550.0453491210938	0.0	890.2898254394531	551.5294189453125	0.0	894.0	615.3444213867188	0.0	898.4522094726562	676.1912841796875	0.0							899.936279296875	683.6116333007812	0.0	924.4234313964844	550.7873840332031	0.0	928.8756408691406	613.8603515625	0.0	928.8756408691406	670.9970397949219	0.0				932.5858154296875	680.6434936523438	0.0	922.9393615722656	677.6753540039062	0.0	902.9044189453125	451.3547058105469	0.0	897.7101745605469	410.54278564453125	0.0	896.2261047363281	433.5458679199219	0.0	877.6752319335938	464.7113342285156	0.0	867.2867431640625	505.52325439453125	0.0	865.8026733398438	543.3670349121094	0.0	928.1336059570312	461.00115966796875	0.0	939.2641296386719	503.2971496582031	0.0	938.5220947265625	542.625	0.0
53	0.44166666666666665	906.6145935058594	550.0453491210938	0.0	890.2898254394531	551.5294189453125	0.0	894.0	615.3444213867188	0.0	898.4522094726562	676.1912841796875	0.0							899.936279296875	683.6116333007812	0.0	924.4234313964844	550.7873840332031	0.0	928.8756408691406	613.8603515625	0.0	928.8756408691406	670.9970397949219	0.0				932.5858154296875	680.6434936523438	0.0	922.9393615722656	677.6753540039062	0.0	902.9044189453125	451.3547058105469	0.0	897.7101745605469	410.54278564453125	0.0	896.2261047363281	433.5458679199219	0.0	877.6752319335938	464.7113342285156	0.0	867.2867431640625	505.52325439453125	0.0	865.8026733398438	543.3670349121094	0.0	928.1336059570312	461.00115966796875	0.0	939.2641296386719	503.2971496582031	0.0	938.5220947265625	542.625	0.0
54	0.45	906.6145935058594	550.0453491210938	0.0	890.2898254394531	551.5294189453125	0.0	894.0	615.3444213867188	0.0	898.4522094726562	676.1912841796875	0.0							899.936279296875	683.6116333007812	0.0	924.4234313964844	550.7873840332031	0.0	928.8756408691406	613.8603515625	0.0	928.8756408691406	670.9970397949219	0.0				932.5858154296875	680.6434936523438	0.0	922.9393615722656	677.6753540039062	0.0	902.9044189453125	451.3547058105469	0.0	897.7101745605469	410.54278564453125	0.0	896.2261047363281	433.5458679199219	0.0	877.6752319335938	464.7113342285156	0.0	867.2867431640625	505.52325439453125	0.0	865.8026733398438	543.3670349121094	0.0	928.1336059570312	461.00115966796875	0.0	939.2641296386719	503.2971496582031	0.0	938.5220947265625	542.625	0.0
55	0.4583333333333333	906.6145935058594	550.0453491210938	0.0	890.2898254394531	551.5294189453125	0.0	894.0	615.3444213867188	0.0	898.4522094726562	676.1912841796875	0.0							899.936279296875	683.6116333007812	0.0	924.4234313964844	550.7873840332031	0.0	928.8756408691406	613.8603515625	0.0	928.8756408691406	670.9970397949219	0.0				932.5858154296875	680.6434936523438	0.0	922.9393615722656	677.6753540039062	0.0	902.9044189453125	451.3547058105469	0.0	897.7101745605469	410.54278564453125	0.0	896.2261047363281	433.5458679199219	0.0	877.6752319335938	464.7113342285156	0.0	867.2867431640625	505.52325439453125	0.0	865.8026733398438	543.3670349121094	0.0	928.1336059570312	461.00115966796875	0.0	939.2641296386719	503.2971496582031	0.0	938.5220947265625	542.625	0.0
56	0.4666666666666667	906.6145935058594	550.0453491210938	0.0	890.2898254394531	551.5294189453125	0.0	894.0	615.3444213867188	0.0	898.4522094726562	676.1912841796875	0.0							899.936279296875	683.6116333007812	0.0	924.4234313964844	550.7873840332031	0.0	928.8756408691406	613.8603515625	0.0	928.8756408691406	670.9970397949219	0.0				932.5858154296875	680.6434936523438	0.0	922.9393615722656	677.6753540039062	0.0	902.9044189453125	451.3547058105469	0.0	897.7101745605469	410.54278564453125	0.0	896.2261047363281	433.5458679199219	0.0	877.6752319335938	464.7113342285156	0.0	867.2867431640625	505.52325439453125	0.0	865.8026733398438	543.3670349121094	0.0	928.1336059570312	461.00115966796875	0.0	939.2641296386719	503.2971496582031	0.0	938.5220947265625	542.625	0.0
57	0.475	907.1662902832031	542.189208984375	0.0	889.5149230957031	547.7052612304688	0.0	889.5149230957031	596.7981262207031	0.0	888.4117126464844	660.7843322753906	0.0							899.936279296875	683.6116333007812	0.0	923.7144470214844	546.60205078125	0.0	935.2981567382812	591.8336791992188	0.0	952.3979187011719	624.3783874511719	0.0				975.0137329101562	627.1364135742188	0.0	950.1914978027344	630.9976501464844	0.0	906.0630798339844	452.2775573730469	0.0	902.2018432617188	412.0103759765625	0.0	893.3761596679688	435.17779541015625	0.0	879.5860290527344	463.3096618652344	0.0	870.208740234375	503.0252380371094	0.0	870.7603454589844	539.4311828613281	0.0	933.0917358398438	463.86126708984375	0.0	943.5722351074219	505.78326416015625	0.0	955.1559448242188	542.7408142089844	0.0
58	0.48333333333333334	906.42333984375	544.226806640625	0.0	888.49365234375	549.829833984375	0.0	887.373046875	604.739501953125	0.0	884.01123046875	665.252197265625	0.0							882.890625	665.252197265625	0.0	923.232421875	549.26953125	0.0	929.9560546875	603.05859375	0.0	923.792724609375	665.252197265625	0.0				974.7802734375	631.634033203125	0.0	944.52392578125	665.252197265625	0.0	905.863037109375	452.337158203125	0.0	902.501220703125	411.995361328125	0.0	893.536376953125	434.9677734375	0.0	879.52880859375	464.103515625	0.0	868.32275390625	505.005615234375	0.0	869.443359375	544.787109375	0.0	933.31787109375	464.663818359375	0.0	943.963623046875	506.6865234375	0.0	955.169677734375	543.66650390625	0.0
59	0.49166666666666664	906.129638671875	543.5447387695312	0.0	887.7453918457031	548.5586242675781	0.0	888.302490234375	604.2684631347656	0.0	885.5169982910156	664.4350891113281	0.0							887.1882934570312	664.4350891113281	0.0	922.8425903320312	548.5586242675781	0.0	927.8564758300781	604.8255615234375	0.0	924.5138854980469	664.4350891113281	0.0				970.1959533691406	664.4350891113281	0.0	926.7422790527344	664.4350891113281	0.0	906.129638671875	452.7377014160156	0.0	902.2299499511719	412.06951904296875	0.0	893.3163757324219	435.4676513671875	0.0	879.388916015625	464.436767578125	0.0	867.6898498535156	506.7762451171875	0.0	866.5756530761719	545.2160339355469	0.0	933.4274597167969	464.9938659667969	0.0	944.0123291015625	506.2191467285156	0.0	955.154296875	542.9876403808594	0.0
60	0.5	907.5420227050781	544.2983093261719	0.0	889.308837890625	548.1659545898438	0.0	889.308837890625	607.8381958007812	0.0	888.2037963867188	663.6427917480469	0.0							889.308837890625	663.6427917480469	0.0	923.5651245117188	548.7184753417969	0.0	929.6428527832031	608.3907165527344	0.0	925.2226867675781	663.6427917480469	0.0				958.3739318847656	663.6427917480469	0.0	924.670166015625	663.6427917480469	0.0	906.4369812011719	452.5798645019531	0.0	902.5693359375	412.245849609375	0.0	893.1764831542969	435.45172119140625	0.0	879.9159851074219	464.18280029296875	0.0	867.7605285644531	507.2794189453125	0.0	866.1029663085938	546.5083923339844	0.0	932.9579772949219	464.7353210449219	0.0	944.5609130859375	506.17437744140625	0.0	955.611328125	543.7457885742188	0.0
61	0.5083333333333333	907.011474609375	543.3359985351562	0.0	889.360107421875	546.0940246582031	0.0	888.8085021972656	604.5641784667969	0.0	887.7052917480469	663.0343322753906	0.0							888.8085021972656	663.0343322753906	0.0	923.0080261230469	547.1972351074219	0.0	930.1788940429688	605.6673889160156	0.0	924.662841796875	663.0343322753906	0.0				963.2752075195312	663.0343322753906	0.0	925.7660522460938	663.0343322753906	0.0	906.4598693847656	452.3211364746094	0.0	902.5986328125	412.6055603027344	0.0	893.2213439941406	435.7729797363281	0.0	879.9828186035156	464.4564514160156	0.0	868.3991088867188	506.9300537109375	0.0	865.0894775390625	546.0940246582031	0.0	933.488525390625	464.4564514160156	0.0	944.5206298828125	505.82684326171875	0.0	955.552734375	543.3359985351562	0.0
62	0.5166666666666666	907.4677734375	544.34765625	0.0	889.8896484375	547.09423828125	0.0	889.34033203125	607.51904296875	0.0	888.24169921875	662.45068359375	0.0							890.43896484375	662.45068359375	0.0	923.39794921875	547.6435546875	0.0	929.98974609375	608.61767578125	0.0	926.14453125	662.45068359375	0.0				945.37060546875	662.45068359375	0.0	925.0458984375	662.45068359375	0.0	906.91845703125	452.61181640625	0.0	902.52392578125	411.96240234375	0.0	892.0869140625	435.5830078125	0.0	880.001953125	464.1474609375	0.0	869.56494140625	506.994140625	0.0	865.7197265625	545.4462890625	0.0	933.8349609375	464.1474609375	0.0	944.27197265625	505.8955078125	0.0	955.25830078125	543.2490234375	0.0
63	0.525	908.2355346679688	543.4367065429688	0.0	890.2138366699219	546.71337890625	0.0	890.2138366699219	605.6934814453125	0.0	891.3060607910156	659.7585754394531	0.0							891.8521728515625	659.7585754394531	0.0	923.5266723632812	547.2594909667969	0.0	930.0800170898438	606.7857055664062	0.0	926.8033447265625	659.7585754394531	0.0				959.570068359375	659.7585754394531	0.0	927.3494567871094	659.7585754394531	0.0	906.5971984863281	452.2359924316406	0.0	902.7744140625	412.36981201171875	0.0	892.9443969726562	435.8526306152344	0.0	879.8377075195312	464.2504577636719	0.0	869.4615783691406	507.9394226074219	0.0	864.0004577636719	545.6211547851562	0.0	933.356689453125	464.2504577636719	0.0	944.2789306640625	505.7549743652344	0.0	955.201171875	544.5289306640625	0.0
64	0.5333333333333333	907.8603515625	544.7918701171875	0.0	890.8883056640625	548.0767822265625	0.0	891.435791015625	608.84765625	0.0	891.435791015625	660.8587646484375	0.0							891.9832763671875	660.8587646484375	0.0	923.7374267578125	548.0767822265625	0.0	929.759765625	609.942626953125	0.0	928.1173095703125	660.8587646484375	0.0				945.08935546875	660.8587646484375	0.0	926.474853515625	660.8587646484375	0.0	906.765380859375	452.266845703125	0.0	902.385498046875	412.3004150390625	0.0	892.53076171875	435.84228515625	0.0	879.9385986328125	464.3115234375	0.0	868.9888916015625	507.5628662109375	0.0	864.0615234375	545.8868408203125	0.0	933.5921630859375	464.3115234375	0.0	944.5418701171875	505.92041015625	0.0	954.944091796875	543.6968994140625	0.0
